<svg width="48" height="48" viewBox="0 0 48 48" fill="none" xmlns="http://www.w3.org/2000/svg">
<path d="M23.4622 30.7659L15.8049 32.7659C15.6784 32.7989 15.5454 32.7982 15.4192 32.7639C15.293 32.7296 15.1777 32.663 15.0852 32.5706C14.9928 32.4781 14.9261 32.3628 14.8918 32.2366C14.8577 32.1106 14.8571 31.9781 14.8899 31.8518L16.8899 24.1956C16.92 24.0802 16.9738 23.9722 17.0481 23.8792L35.469 5.46997L35.47 5.47095C35.6106 5.3305 35.8015 5.25122 36.0002 5.25122C36.1494 5.25126 36.294 5.29564 36.4163 5.3772L36.5305 5.47095L42.1731 11.1125H42.1741C42.2152 11.1559 42.2529 11.2024 42.2874 11.2512C42.3794 11.394 42.4207 11.5635 42.4036 11.7327C42.3861 11.9045 42.3099 12.0656 42.1877 12.1877L23.802 30.5715C23.7081 30.6654 23.5906 30.7321 23.4622 30.7659ZM35.47 7.59204L18.4338 24.6272L18.2903 24.7717L18.2385 24.968L16.9885 29.7542L16.6653 30.9934L17.9036 30.6692L22.6897 29.4192L22.887 29.3684L23.0305 29.2239L40.0667 12.1858L40.5969 11.6555L40.0667 11.1252L36.5305 7.59106L36.0002 7.06177L35.47 7.59204Z" fill="white" stroke="white" stroke-width="1.5"/>
<path d="M13.5664 6.40991C18.5671 5.85761 23.6035 5.70381 28.6279 5.94702L27.2021 7.37378H27.2012C27.1964 7.37849 27.1908 7.38204 27.1846 7.38452C27.1782 7.38704 27.1709 7.38867 27.1641 7.38843C22.9615 7.24448 18.7539 7.38634 14.5713 7.81323L13.7354 7.9021C12.2756 8.0637 10.9126 8.71337 9.86719 9.74487C8.82193 10.7764 8.15476 12.1303 7.97363 13.5876L7.97266 13.5925C7.1636 20.507 7.16361 27.4925 7.97266 34.407L7.97363 34.4128C8.15486 35.8702 8.82183 37.2242 9.86719 38.2556C10.9124 39.2869 12.2751 39.9346 13.7344 40.0964V40.0974C20.4995 40.8536 27.4994 40.8526 34.2666 40.0964C35.7263 39.9348 37.0893 39.2871 38.1348 38.2556C39.1807 37.2237 39.8452 35.8694 40.0264 34.4128L40.0273 34.407C40.5786 29.6955 40.7546 24.9472 40.5537 20.2078C40.5535 20.2011 40.5543 20.1945 40.5566 20.1882C40.5592 20.1818 40.5635 20.1755 40.5684 20.1707L41.9805 18.7576C42.2842 24.0357 42.1298 29.3306 41.5166 34.5828C41.0993 38.1584 38.3013 40.9944 34.7764 41.5427L34.4326 41.5886C27.4987 42.3559 20.5013 42.3559 13.5674 41.5886C9.88387 41.1767 6.9142 38.2738 6.4834 34.5828C5.66237 27.5513 5.66237 20.4482 6.4834 13.4167C6.91428 9.7257 9.88209 6.82281 13.5674 6.41089L13.5664 6.40991Z" fill="white" stroke="white" stroke-width="1.5"/>
</svg>
