<svg width="48" height="48" viewBox="0 0 48 48" fill="none" xmlns="http://www.w3.org/2000/svg">
<path d="M9.33333 27.4259V42H20V31.4007C20 30.6979 20.281 30.0239 20.781 29.527C21.2811 29.03 21.9594 28.7509 22.6667 28.7509H25.3333C26.0406 28.7509 26.7189 29.03 27.219 29.527C27.719 30.0239 28 30.6979 28 31.4007V42H38.6667V27.4259M4 24.7761L22.1138 6.77672C22.3614 6.53048 22.6555 6.33514 22.9791 6.20187C23.3028 6.0686 23.6497 6 24 6C24.3503 6 24.6972 6.0686 25.0209 6.20187C25.3445 6.33514 25.6386 6.53048 25.8862 6.77672L44 24.7761" stroke="white" stroke-width="3" stroke-linecap="round" stroke-linejoin="round"/>
</svg>
